<!--
Versao: 0.1.0
Criado em: 2026-04-23 11:05:00 -03:00
Criado por: Codex
Projeto/pasta: ha.ext.tarifas
-->
<svg xmlns="http://www.w3.org/2000/svg" width="512" height="512" viewBox="0 0 512 512" role="img" aria-label="Tarifas Energia Brasil">
  <defs>
    <radialGradient id="bg" cx="50%" cy="45%" r="60%">
      <stop offset="0%" stop-color="#0BA360"/>
      <stop offset="100%" stop-color="#045B34"/>
    </radialGradient>
    <linearGradient id="ring" x1="0" y1="0" x2="1" y2="1">
      <stop offset="0%" stop-color="#0D6E44"/>
      <stop offset="100%" stop-color="#083E28"/>
    </linearGradient>
    <linearGradient id="gold" x1="0" y1="0" x2="1" y2="1">
      <stop offset="0%" stop-color="#FFE27A"/>
      <stop offset="100%" stop-color="#F7B500"/>
    </linearGradient>
  </defs>

  <rect width="512" height="512" fill="#F2F5F7"/>

  <circle cx="256" cy="256" r="224" fill="url(#ring)"/>
  <circle cx="256" cy="256" r="200" fill="url(#bg)"/>
  <circle cx="256" cy="256" r="158" fill="#0A6F45"/>
  <path d="M96 256L256 144L416 256L256 368Z" fill="#F4D23C" opacity="0.86"/>
  <circle cx="256" cy="256" r="136" fill="url(#gold)"/>

  <path d="M143 184C161 178 178 173 196 166C212 159 223 150 235 139C247 128 256 123 268 121C280 119 292 126 302 129C313 132 323 136 334 142C349 151 361 163 372 173L372 206C356 192 339 186 321 181C301 175 280 171 261 170C242 169 222 171 202 175C182 179 162 187 143 199Z"
    fill="#18A35E" stroke="#FFFFFF" stroke-width="5"/>

  <g stroke="#0C4F37" stroke-width="6" fill="none" stroke-linecap="round" stroke-linejoin="round">
    <path d="M256 122L223 300H289Z"/>
    <path d="M256 122L256 332"/>
    <path d="M232 176H280"/>
    <path d="M224 210H288"/>
    <path d="M216 246H296"/>
    <path d="M209 284H303"/>
    <path d="M206 220L170 235"/>
    <path d="M306 220L342 235"/>
    <path d="M200 246L164 262"/>
    <path d="M312 246L348 262"/>
  </g>

  <path d="M280 148L246 206H274L238 274H274L246 332L318 238H286L324 188H292Z"
    fill="#FFE86A" stroke="#0B5C3C" stroke-width="4"/>

  <text x="192" y="322" font-family="Arial, sans-serif" font-weight="700" font-size="78" fill="#0D7D4B" stroke="#073E28" stroke-width="4">R</text>
  <text x="236" y="322" font-family="Arial, sans-serif" font-weight="700" font-size="82" fill="#FFD146" stroke="#7A5D00" stroke-width="4">$</text>

  <g transform="translate(304 286)">
    <rect x="0" y="40" width="28" height="44" fill="#16A055" stroke="#0A4D31" stroke-width="4"/>
    <rect x="34" y="20" width="28" height="64" fill="#24B464" stroke="#0A4D31" stroke-width="4"/>
    <rect x="68" y="0" width="28" height="84" fill="#31C573" stroke="#0A4D31" stroke-width="4"/>
    <path d="M0 72L26 52L52 56L80 24L96 30" stroke="#0A4D31" stroke-width="7" fill="none"/>
    <path d="M88 20L104 26L94 38" fill="none" stroke="#0A4D31" stroke-width="6" stroke-linecap="round"/>
  </g>

  <g fill="#F7C548" stroke="#7A5D00" stroke-width="4">
    <circle cx="178" cy="352" r="22"/>
    <circle cx="223" cy="352" r="22"/>
    <circle cx="268" cy="352" r="22"/>
    <circle cx="313" cy="352" r="22"/>
  </g>

  <g fill="#FFFFFF" font-family="Arial, sans-serif" font-weight="700">
    <text x="256" y="102" text-anchor="middle" font-size="66" letter-spacing="5">BRASIL</text>
    <path id="arcBottom" d="M96 300A176 176 0 0 0 416 300" fill="none"/>
    <text font-size="56" letter-spacing="2">
      <textPath href="#arcBottom" startOffset="50%" text-anchor="middle">TARIFAS DE ENERGIA</textPath>
    </text>
  </g>

  <circle cx="256" cy="256" r="224" fill="none" stroke="#052F1F" stroke-width="10"/>
  <circle cx="256" cy="256" r="200" fill="none" stroke="#18A35E" stroke-width="6" opacity="0.8"/>
</svg>
